<svg xmlns="http://www.w3.org/2000/svg" version="1.1" id="Layer_1" x="0" y="0" xml:space="preserve" width="100" height="100">
    <style type="text/css" id="style2">
        .st1{fill:#fff}
    </style>
    <circle cx="50" cy="50" r="50" id="circle4" fill="#50b372" stroke-width=".671"/>
    <g id="g32" transform="translate(-.37 -.403) scale(.67105)">
        <path class="st1" d="M16.15 66.47c.27 2.67 1.53 3.36 3.72 3.36 1.77 0 3.09-.51 4.02-1.17h1.68v3.21c-1.38.78-3.24 1.56-6.54 1.56-5.49 0-8.34-3.06-8.34-8.04 0-5.07 3.3-8.25 8.07-8.25 4.92 0 7.44 2.61 7.44 7.95 0 .63-.06 1.2-.06 1.38zm.04-2.82h4.92c-.09-2.43-.9-3.21-2.34-3.21-1.23 0-2.29.63-2.58 3.21z" id="path6" fill="#fff"/>
        <path class="st1" d="M27.7 72.14V68.6h1.83c.63.57 1.95 1.17 3.66 1.17 1.44 0 2.34-.33 2.34-1.14 0-.84-.54-1.11-2.73-1.41-3.36-.42-5.25-1.59-5.25-4.89 0-3.45 2.7-5.16 6.66-5.16 2.52 0 3.99.42 5.34 1.05v3.48h-1.71c-.72-.48-1.89-.96-3.48-.96-1.5 0-2.07.39-2.07 1.14 0 .66.69.99 2.7 1.23 3.69.45 5.46 1.56 5.46 4.92s-2.22 5.37-7.05 5.37c-2.76 0-4.41-.6-5.7-1.26z" id="path8" fill="#fff"/>
        <path class="st1" d="M41.92 72.14V68.6h1.83c.63.57 1.95 1.17 3.66 1.17 1.44 0 2.34-.33 2.34-1.14 0-.84-.54-1.11-2.73-1.41-3.36-.42-5.25-1.59-5.25-4.89 0-3.45 2.7-5.16 6.66-5.16 2.52 0 3.99.42 5.34 1.05v3.48h-1.71c-.72-.48-1.89-.96-3.48-.96-1.5 0-2.07.39-2.07 1.14 0 .66.69.99 2.7 1.23 3.69.45 5.46 1.56 5.46 4.92s-2.22 5.37-7.05 5.37c-2.76 0-4.41-.6-5.7-1.26z" id="path10" fill="#fff"/>
        <path class="st1" d="M61.3 66.47c.27 2.67 1.53 3.36 3.72 3.36 1.77 0 3.09-.51 4.02-1.17h1.68v3.21c-1.38.78-3.24 1.56-6.54 1.56-5.49 0-8.34-3.06-8.34-8.04 0-5.07 3.3-8.25 8.07-8.25 4.92 0 7.44 2.61 7.44 7.95 0 .63-.06 1.2-.06 1.38zm.03-2.82h4.92c-.09-2.43-.9-3.21-2.34-3.21-1.23 0-2.28.63-2.58 3.21z" id="path12" fill="#fff"/>
        <path class="st1" d="M78.67 59.3c1.41-1.17 3.39-2.16 5.7-2.16 2.37 0 4.29.96 4.29 4.47v11.58h-5.4V63.02c0-1.38-.57-1.74-1.86-1.74-.99 0-1.86.27-2.61.51v11.4h-5.4V57.38h3.75c.84 0 1.32.33 1.53 1.92z" id="path14" fill="#fff"/>
        <path class="st1" d="M90.37 57.38h1.71v-4.02h5.4v4.02h2.94v3.48h-2.94v7.2c0 1.41.54 1.86 1.95 1.86h1.05v3.12c-.72.21-1.74.42-3.09.42-3.24 0-5.31-1.14-5.31-4.59v-8.01h-1.71z" id="path16" fill="#fff"/>
        <path class="st1" d="M102.43 53.9c0-1.47 1.2-2.55 2.79-2.55 1.62 0 2.79 1.08 2.79 2.55 0 1.47-1.17 2.52-2.79 2.52-1.59 0-2.79-1.05-2.79-2.52zm.09 19.29V57.38H106c1.62 0 1.89.54 1.89 3.03v12.78z" id="path18" fill="#fff"/>
        <path class="st1" d="M119.53 71.69c-1.11 1.23-2.58 1.71-4.53 1.71-2.79 0-5.01-1.59-5.01-4.71 0-3.33 2.55-4.92 6.21-4.92 1.2 0 2.13.12 3.03.3v-1.08c0-1.38-.72-2.01-2.67-2.01-1.56 0-2.85.45-3.75 1.05h-1.62V58.4c1.47-.63 3.6-1.26 6.42-1.26 4.71 0 7.02 1.56 7.02 5.46v10.59h-2.94c-1.26 0-1.86-.45-2.16-1.5zm-.3-2.31v-2.79c-.54-.09-1.17-.15-1.77-.15-1.44 0-2.34.57-2.34 1.89 0 1.35.84 1.92 2.01 1.92.81 0 1.53-.39 2.1-.87z" id="path20" fill="#fff"/>
        <path class="st1" d="M127.48 73.19v-21h3.42c1.68 0 1.98.42 1.98 2.82v18.18z" id="path22" fill="#fff"/>
        <path class="st1" d="M44.76 85.9c0-1.47 1.2-2.55 2.79-2.55 1.62 0 2.79 1.08 2.79 2.55 0 1.47-1.17 2.52-2.79 2.52-1.59 0-2.79-1.05-2.79-2.52zm.09 19.29V89.38h3.48c1.62 0 1.89.54 1.89 3.03v12.78z" id="path24" fill="#fff"/>
        <path class="st1" d="M52.08 89.38h1.71v-4.02h5.4v4.02h2.94v3.48h-2.94v7.2c0 1.41.54 1.86 1.95 1.86h1.05v3.12c-.72.21-1.74.42-3.09.42-3.24 0-5.31-1.14-5.31-4.59v-8.01h-1.71z" id="path26" fill="#fff"/>
        <path class="st1" d="M68.82 98.47c.27 2.67 1.53 3.36 3.72 3.36 1.77 0 3.09-.51 4.02-1.17h1.68v3.21c-1.38.78-3.24 1.56-6.54 1.56-5.49 0-8.34-3.06-8.34-8.04 0-5.07 3.3-8.25 8.07-8.25 4.92 0 7.44 2.61 7.44 7.95 0 .63-.06 1.2-.06 1.38zm.03-2.82h4.92c-.09-2.43-.9-3.21-2.34-3.21-1.23 0-2.28.63-2.58 3.21z" id="path28" fill="#fff"/>
        <path class="st1" d="M86.19 91.33c1.38-1.23 3.27-2.19 5.46-2.19 1.74 0 3.24.57 3.87 2.25 1.5-1.35 3.51-2.25 5.67-2.25 2.31 0 4.2 1.05 4.2 4.47v11.58h-5.4V95.02c0-1.32-.51-1.74-1.77-1.74-.87 0-1.71.24-2.37.48v11.43h-5.4V95.02c0-1.32-.51-1.74-1.77-1.74-.87 0-1.68.24-2.37.45v11.46h-5.4V89.38h3.75c.84 0 1.35.33 1.53 1.95z" id="path30" fill="#fff"/>
    </g>
</svg>
