<svg id="Layer_1" data-name="Layer 1" xmlns="http://www.w3.org/2000/svg" viewBox="0 0 100 100"><defs><style>.cls-1{fill:#ec2227;}.cls-2,.cls-3{fill:#fff;}.cls-3{font-size:29.31px;font-family:StagSans-SemiboldItalic, Stag Sans;font-weight:600;font-style:italic;}</style></defs><path class="cls-1" d="M99.86,50A49.86,49.86,0,1,1,50,.14,49.86,49.86,0,0,1,99.86,50"/><path class="cls-2" d="M24.18,30.46h6.94l-1.76,7.65h4.75l1.73-7.65h7L38.1,51h-7l1.82-7.92H28.22L26.4,51H19.46Z"/><path class="cls-2" d="M42.35,42.77c0-6.54,4.48-12.63,12-12.63,5.86,0,9.32,3.51,9.32,8.67,0,6.45-4.55,12.49-12.11,12.49C46.48,51.3,42.35,48.46,42.35,42.77Zm14.39-4.19c0-2.14-.85-3.58-2.61-3.58-3.48,0-4.8,5.31-4.8,8.06,0,2,.73,3.55,2.66,3.55C55.42,46.61,56.74,41.42,56.74,38.58Z"/><path class="cls-2" d="M69.7,35.21H64.92L66,30.46h16.5l-1.09,4.75H76.68L73,51h-7Z"/><text class="cls-3" transform="translate(80.28 50.98)"> </text><path class="cls-2" d="M23.4,60.09h2.41c1.36,0,2.09.47,2.14,1.81a5.08,5.08,0,0,1,3.94-2c2,0,3.56,1.26,3.56,4.5,0,4.45-2.37,8-6.5,8A4.36,4.36,0,0,1,26,71.47l-1.1,4.8H19.67Zm4.34,3.78-.08.32L26.56,69a1.72,1.72,0,0,0,1.08.3c1.6,0,2.44-1.76,2.44-4.1,0-1.18-.52-1.55-1.38-1.55A2,2,0,0,0,27.74,63.87Z"/><path class="cls-2" d="M38.15,60.09h2.39c1.5,0,2.23.56,2.16,2.25C43.82,60.82,45,60,46.47,60a2.15,2.15,0,0,1,.68.09l-1,4.27h-.45a9.31,9.31,0,0,0-3.49.63l-1.71,7.48H35.29Z"/><path class="cls-2" d="M48.75,60.09h3c1.66,0,2.11.45,1.64,2.46l-2.25,9.92H45.89Zm.44-2.46a2.47,2.47,0,0,1,2.75-2.44c1.45,0,2.41.77,2.41,2a2.47,2.47,0,0,1-2.77,2.39C50.15,59.57,49.19,58.82,49.19,57.63Z"/><path class="cls-2" d="M53.88,67.6c0-4.77,3.59-7.74,8.16-7.74a7.94,7.94,0,0,1,4.13,1L65.42,64H63.59a1.78,1.78,0,0,0-1.45-.57c-1.9,0-3,1.83-3,3.87,0,1.34.61,2,1.78,2a3,3,0,0,0,1.85-.65h1.78l-.72,3.19a7.67,7.67,0,0,1-3.8.86C55.85,72.68,53.88,70.69,53.88,67.6Z"/><path class="cls-2" d="M66,67.5c0-4.38,2.91-7.6,7.46-7.64,3,0,5.32,1.4,5.27,4.83a9.36,9.36,0,0,1-.39,2.72H71.12c0,1.38.61,2,2.09,2A6,6,0,0,0,76,68.74h1.69L77,71.68a9.59,9.59,0,0,1-4.67,1C68.23,72.68,66,70.88,66,67.5ZM71.4,65h2.77a6.56,6.56,0,0,0,0-.68c0-.9-.25-1.36-1-1.36S71.71,63.84,71.4,65Z"/></svg>