<svg width="128" height="128" viewBox="0 0 128 128" fill="none" xmlns="http://www.w3.org/2000/svg">
<path d="M61.2037 1.16075C62.7467 -0.386916 65.2533 -0.386915 66.7963 1.16075L73.0167 7.40012C74.1473 8.5342 75.851 8.87308 77.3295 8.258L85.4641 4.87401C87.4819 4.03463 89.7977 4.99387 90.631 7.01419L93.9902 15.1591C94.6007 16.6395 96.045 17.6045 97.6464 17.6021L106.457 17.5887C108.642 17.5854 110.415 19.3578 110.411 21.5432L110.398 30.3536C110.395 31.955 111.361 33.3993 112.841 34.0098L120.986 37.369C123.006 38.2023 123.965 40.5181 123.126 42.5359L119.742 50.6705C119.127 52.1491 119.466 53.8527 120.6 54.9833L126.839 61.2037C128.387 62.7467 128.387 65.2533 126.839 66.7963L120.6 73.0167C119.466 74.1473 119.127 75.851 119.742 77.3295L123.126 85.4641C123.965 87.4819 123.006 89.7977 120.986 90.631L112.841 93.9902C111.361 94.6007 110.395 96.045 110.398 97.6464L110.411 106.457C110.415 108.642 108.642 110.415 106.457 110.411L97.6464 110.398C96.045 110.395 94.6007 111.361 93.9902 112.841L90.631 120.986C89.7977 123.006 87.4819 123.965 85.4641 123.126L77.3295 119.742C75.851 119.127 74.1473 119.466 73.0167 120.6L66.7963 126.839C65.2533 128.387 62.7467 128.387 61.2037 126.839L54.9833 120.6C53.8527 119.466 52.149 119.127 50.6705 119.742L42.5359 123.126C40.5181 123.965 38.2023 123.006 37.369 120.986L34.0098 112.841C33.3993 111.361 31.955 110.395 30.3536 110.398L21.5432 110.411C19.3578 110.415 17.5854 108.642 17.5887 106.457L17.6021 97.6464C17.6045 96.045 16.6395 94.6007 15.1591 93.9902L7.01418 90.631C4.99387 89.7977 4.03463 87.4819 4.87402 85.4641L8.258 77.3295C8.87308 75.851 8.5342 74.1473 7.40012 73.0167L1.16075 66.7963C-0.386916 65.2533 -0.386915 62.7467 1.16075 61.2037L7.40012 54.9833C8.5342 53.8527 8.87308 52.149 8.258 50.6705L4.87401 42.5359C4.03463 40.5181 4.99387 38.2023 7.01419 37.369L15.1591 34.0098C16.6395 33.3993 17.6045 31.955 17.6021 30.3536L17.5887 21.5432C17.5854 19.3578 19.3578 17.5854 21.5432 17.5887L30.3536 17.6021C31.955 17.6045 33.3993 16.6395 34.0098 15.1591L37.369 7.01418C38.2023 4.99387 40.5181 4.03463 42.5359 4.87402L50.6705 8.258C52.1491 8.87308 53.8527 8.5342 54.9833 7.40012L61.2037 1.16075Z" fill="#FFDE00"/>
</svg>
